<svg width="26" height="26" viewBox="0 0 26 26" fill="none" xmlns="http://www.w3.org/2000/svg">
<path d="M22.1216 4.96167C21.5782 4.4163 20.9324 3.98357 20.2213 3.68831C19.5102 3.39305 18.7478 3.24106 17.9779 3.24106C17.2079 3.24106 16.4456 3.39305 15.7345 3.68831C15.0234 3.98357 14.3776 4.4163 13.8341 4.96167L13 5.80667L12.1658 4.96167C11.6223 4.4163 10.9765 3.98357 10.2654 3.68831C9.55437 3.39305 8.792 3.24106 8.02206 3.24106C7.25211 3.24106 6.48974 3.39305 5.77867 3.68831C5.06759 3.98357 4.42179 4.4163 3.8783 4.96167C1.58164 7.25834 1.4408 11.1367 4.3333 14.0833L13 22.75L21.6666 14.0833C24.5591 11.1367 24.4183 7.25834 22.1216 4.96167Z" stroke="#1B1B1B" stroke-width="2" stroke-linecap="round" stroke-linejoin="round"/>
</svg>
